<?xml version="1.0" encoding="UTF-8" standalone="no"?>
<!DOCTYPE svg PUBLIC "-//W3C//DTD SVG 1.1//EN"
 "http://www.w3.org/Graphics/SVG/1.1/DTD/svg11.dtd">
<!-- Generated by graphviz version 12.1.1 (20240910.0053)
 -->
<!-- Title: INFRA Pages: 1 -->
<svg width="1592pt" height="404pt"
 viewBox="0.00 0.00 1591.62 404.00" xmlns="http://www.w3.org/2000/svg" xmlns:xlink="http://www.w3.org/1999/xlink">
<g id="graph0" class="graph" transform="scale(1 1) rotate(0) translate(4 400)">
<title>INFRA</title>
<polygon fill="white" stroke="none" points="-4,4 -4,-400 1587.62,-400 1587.62,4 -4,4"/>
<!-- BlueberryData -->
<g id="node1" class="node">
<title>BlueberryData</title>
<path fill="#fff5cd" stroke="black" stroke-width="2" d="M132.7,-173.45C132.7,-177.07 102.96,-180 66.35,-180 29.74,-180 0,-177.07 0,-173.45 0,-173.45 0,-114.55 0,-114.55 0,-110.93 29.74,-108 66.35,-108 102.96,-108 132.7,-110.93 132.7,-114.55 132.7,-114.55 132.7,-173.45 132.7,-173.45"/>
<path fill="none" stroke="black" stroke-width="2" d="M132.7,-173.45C132.7,-169.84 102.96,-166.91 66.35,-166.91 29.74,-166.91 0,-169.84 0,-173.45"/>
<text text-anchor="middle" x="66.35" y="-148.2" font-family="Arial" font-size="14.00">BlueberryData</text>
<text text-anchor="middle" x="66.35" y="-131.4" font-family="Arial" font-size="14.00">(AWS::S3::Bucket)</text>
</g>
<!-- emailBucket -->
<g id="node2" class="node">
<title>emailBucket</title>
<path fill="#fff5cd" stroke="black" stroke-width="2" d="M703.7,-389.45C703.7,-393.07 673.96,-396 637.35,-396 600.74,-396 571,-393.07 571,-389.45 571,-389.45 571,-330.55 571,-330.55 571,-326.93 600.74,-324 637.35,-324 673.96,-324 703.7,-326.93 703.7,-330.55 703.7,-330.55 703.7,-389.45 703.7,-389.45"/>
<path fill="none" stroke="black" stroke-width="2" d="M703.7,-389.45C703.7,-385.84 673.96,-382.91 637.35,-382.91 600.74,-382.91 571,-385.84 571,-389.45"/>
<text text-anchor="middle" x="637.35" y="-364.2" font-family="Arial" font-size="14.00">emailBucket</text>
<text text-anchor="middle" x="637.35" y="-347.4" font-family="Arial" font-size="14.00">(AWS::S3::Bucket)</text>
</g>
<!-- SSucket -->
<g id="node3" class="node">
<title>SSucket</title>
<path fill="#fff5cd" stroke="black" stroke-width="2" d="M329.7,-65.45C329.7,-69.07 299.96,-72 263.35,-72 226.74,-72 197,-69.07 197,-65.45 197,-65.45 197,-6.55 197,-6.55 197,-2.93 226.74,0 263.35,0 299.96,0 329.7,-2.93 329.7,-6.55 329.7,-6.55 329.7,-65.45 329.7,-65.45"/>
<path fill="none" stroke="black" stroke-width="2" d="M329.7,-65.45C329.7,-61.84 299.96,-58.91 263.35,-58.91 226.74,-58.91 197,-61.84 197,-65.45"/>
<text text-anchor="middle" x="263.35" y="-40.2" font-family="Arial" font-size="14.00">SSucket</text>
<text text-anchor="middle" x="263.35" y="-23.4" font-family="Arial" font-size="14.00">(AWS::S3::Bucket)</text>
</g>
<!-- DashboardLogsBucket -->
<g id="node4" class="node">
<title>DashboardLogsBucket</title>
<path fill="#fff5cd" stroke="black" stroke-width="2" d="M879.17,-389.45C879.17,-393.07 843.84,-396 800.35,-396 756.85,-396 721.52,-393.07 721.52,-389.45 721.52,-389.45 721.52,-330.55 721.52,-330.55 721.52,-326.93 756.85,-324 800.35,-324 843.84,-324 879.17,-326.93 879.17,-330.55 879.17,-330.55 879.17,-389.45 879.17,-389.45"/>
<path fill="none" stroke="black" stroke-width="2" d="M879.17,-389.45C879.17,-385.84 843.84,-382.91 800.35,-382.91 756.85,-382.91 721.52,-385.84 721.52,-389.45"/>
<text text-anchor="middle" x="800.35" y="-364.2" font-family="Arial" font-size="14.00">DashboardLogsBucket</text>
<text text-anchor="middle" x="800.35" y="-347.4" font-family="Arial" font-size="14.00">(AWS::S3::Bucket)</text>
</g>
<!-- BlueberryKnowledgeBase -->
<g id="node5" class="node">
<title>BlueberryKnowledgeBase</title>
<path fill="#e6e6e6" stroke="black" stroke-width="2" d="M364.01,-180C364.01,-180 162.69,-180 162.69,-180 156.69,-180 150.69,-174 150.69,-168 150.69,-168 150.69,-120 150.69,-120 150.69,-114 156.69,-108 162.69,-108 162.69,-108 364.01,-108 364.01,-108 370.01,-108 376.01,-114 376.01,-120 376.01,-120 376.01,-168 376.01,-168 376.01,-174 370.01,-180 364.01,-180"/>
<text text-anchor="middle" x="263.35" y="-148.2" font-family="Arial" font-size="14.00">BlueberryKnowledgeBase</text>
<text text-anchor="middle" x="263.35" y="-131.4" font-family="Arial" font-size="14.00">(AWS::Bedrock::KnowledgeBase)</text>
</g>
<!-- BlueberryKnowledgeBase&#45;&gt;SSucket -->
<g id="edge1" class="edge">
<title>BlueberryKnowledgeBase&#45;&gt;SSucket</title>
<path fill="none" stroke="black" d="M263.35,-107.7C263.35,-99.93 263.35,-91.57 263.35,-83.43"/>
<polygon fill="black" stroke="black" points="266.85,-83.66 263.35,-73.66 259.85,-83.66 266.85,-83.66"/>
</g>
<!-- DataSource -->
<g id="node6" class="node">
<title>DataSource</title>
<path fill="#e6e6e6" stroke="black" stroke-width="2" d="M250.38,-288C250.38,-288 76.32,-288 76.32,-288 70.32,-288 64.32,-282 64.32,-276 64.32,-276 64.32,-228 64.32,-228 64.32,-222 70.32,-216 76.32,-216 76.32,-216 250.38,-216 250.38,-216 256.38,-216 262.38,-222 262.38,-228 262.38,-228 262.38,-276 262.38,-276 262.38,-282 256.38,-288 250.38,-288"/>
<text text-anchor="middle" x="163.35" y="-256.2" font-family="Arial" font-size="14.00">DataSource</text>
<text text-anchor="middle" x="163.35" y="-239.4" font-family="Arial" font-size="14.00">(AWS::Bedrock::DataSource)</text>
</g>
<!-- DataSource&#45;&gt;BlueberryData -->
<g id="edge2" class="edge">
<title>DataSource&#45;&gt;BlueberryData</title>
<path fill="none" stroke="black" d="M131.05,-215.7C123.11,-207.03 114.52,-197.65 106.28,-188.63"/>
<polygon fill="black" stroke="black" points="108.86,-186.27 99.53,-181.26 103.7,-191 108.86,-186.27"/>
</g>
<!-- DataSource&#45;&gt;BlueberryKnowledgeBase -->
<g id="edge3" class="edge">
<title>DataSource&#45;&gt;BlueberryKnowledgeBase</title>
<path fill="none" stroke="black" d="M196.65,-215.7C204.91,-206.94 213.86,-197.45 222.45,-188.35"/>
<polygon fill="black" stroke="black" points="224.84,-190.92 229.16,-181.24 219.75,-186.12 224.84,-190.92"/>
</g>
<!-- BlueberriesDashboardSessionlogs -->
<g id="node7" class="node">
<title>BlueberriesDashboardSessionlogs</title>
<path fill="#ffcfb3" stroke="black" stroke-width="2" d="M1127.74,-389.45C1127.74,-393.07 1076.02,-396 1012.35,-396 948.67,-396 896.95,-393.07 896.95,-389.45 896.95,-389.45 896.95,-330.55 896.95,-330.55 896.95,-326.93 948.67,-324 1012.35,-324 1076.02,-324 1127.74,-326.93 1127.74,-330.55 1127.74,-330.55 1127.74,-389.45 1127.74,-389.45"/>
<path fill="none" stroke="black" stroke-width="2" d="M1127.74,-389.45C1127.74,-385.84 1076.02,-382.91 1012.35,-382.91 948.67,-382.91 896.95,-385.84 896.95,-389.45"/>
<text text-anchor="middle" x="1012.35" y="-364.2" font-family="Arial" font-size="14.00">BlueberriesDashboardSessionlogs</text>
<text text-anchor="middle" x="1012.35" y="-347.4" font-family="Arial" font-size="14.00">(AWS::DynamoDB::Table)</text>
</g>
<!-- BedrockRole3 -->
<g id="node8" class="node">
<title>BedrockRole3</title>
<path fill="#e6e6e6" stroke="black" stroke-width="2" d="M508.58,-180C508.58,-180 406.12,-180 406.12,-180 400.12,-180 394.12,-174 394.12,-168 394.12,-168 394.12,-120 394.12,-120 394.12,-114 400.12,-108 406.12,-108 406.12,-108 508.58,-108 508.58,-108 514.58,-108 520.58,-114 520.58,-120 520.58,-120 520.58,-168 520.58,-168 520.58,-174 514.58,-180 508.58,-180"/>
<text text-anchor="middle" x="457.35" y="-148.2" font-family="Arial" font-size="14.00">BedrockRole3</text>
<text text-anchor="middle" x="457.35" y="-131.4" font-family="Arial" font-size="14.00">(AWS::IAM::Role)</text>
</g>
<!-- bedrockGuardrails&#45;blueberry -->
<g id="node9" class="node">
<title>bedrockGuardrails&#45;blueberry</title>
<path fill="#e6e6e6" stroke="black" stroke-width="2" d="M720.05,-180C720.05,-180 550.64,-180 550.64,-180 544.64,-180 538.64,-174 538.64,-168 538.64,-168 538.64,-120 538.64,-120 538.64,-114 544.64,-108 550.64,-108 550.64,-108 720.05,-108 720.05,-108 726.05,-108 732.05,-114 732.05,-120 732.05,-120 732.05,-168 732.05,-168 732.05,-174 726.05,-180 720.05,-180"/>
<text text-anchor="middle" x="635.35" y="-148.2" font-family="Arial" font-size="14.00">bedrockGuardrails&#45;blueberry</text>
<text text-anchor="middle" x="635.35" y="-131.4" font-family="Arial" font-size="14.00">(AWS::Bedrock::Guardrail)</text>
</g>
<!-- Agent -->
<g id="node10" class="node">
<title>Agent</title>
<path fill="#b7e0ff" stroke="black" stroke-width="2" d="M525.71,-288C525.71,-288 388.99,-288 388.99,-288 382.99,-288 376.99,-282 376.99,-276 376.99,-276 376.99,-228 376.99,-228 376.99,-222 382.99,-216 388.99,-216 388.99,-216 525.71,-216 525.71,-216 531.71,-216 537.71,-222 537.71,-228 537.71,-228 537.71,-276 537.71,-276 537.71,-282 531.71,-288 525.71,-288"/>
<text text-anchor="middle" x="457.35" y="-256.2" font-family="Arial" font-size="14.00">Agent</text>
<text text-anchor="middle" x="457.35" y="-239.4" font-family="Arial" font-size="14.00">(AWS::Bedrock::Agent)</text>
</g>
<!-- Agent&#45;&gt;BlueberryKnowledgeBase -->
<g id="edge4" class="edge">
<title>Agent&#45;&gt;BlueberryKnowledgeBase</title>
<path fill="none" stroke="black" d="M392.48,-215.56C375.01,-206.01 355.97,-195.61 338.01,-185.79"/>
<polygon fill="black" stroke="black" points="339.94,-182.86 329.48,-181.14 336.58,-189 339.94,-182.86"/>
</g>
<!-- Agent&#45;&gt;BedrockRole3 -->
<g id="edge5" class="edge">
<title>Agent&#45;&gt;BedrockRole3</title>
<path fill="none" stroke="black" d="M457.35,-215.7C457.35,-207.93 457.35,-199.57 457.35,-191.43"/>
<polygon fill="black" stroke="black" points="460.85,-191.66 457.35,-181.66 453.85,-191.66 460.85,-191.66"/>
</g>
<!-- Agent&#45;&gt;bedrockGuardrails&#45;blueberry -->
<g id="edge6" class="edge">
<title>Agent&#45;&gt;bedrockGuardrails&#45;blueberry</title>
<path fill="none" stroke="black" d="M516.62,-215.7C532.6,-206.19 550.02,-195.81 566.47,-186.01"/>
<polygon fill="black" stroke="black" points="567.93,-189.22 574.73,-181.1 564.35,-183.21 567.93,-189.22"/>
</g>
<!-- AgentAlias -->
<g id="node11" class="node">
<title>AgentAlias</title>
<path fill="#b7e0ff" stroke="black" stroke-width="2" d="M540.88,-396C540.88,-396 373.82,-396 373.82,-396 367.82,-396 361.82,-390 361.82,-384 361.82,-384 361.82,-336 361.82,-336 361.82,-330 367.82,-324 373.82,-324 373.82,-324 540.88,-324 540.88,-324 546.88,-324 552.88,-330 552.88,-336 552.88,-336 552.88,-384 552.88,-384 552.88,-390 546.88,-396 540.88,-396"/>
<text text-anchor="middle" x="457.35" y="-364.2" font-family="Arial" font-size="14.00">AgentAlias</text>
<text text-anchor="middle" x="457.35" y="-347.4" font-family="Arial" font-size="14.00">(AWS::Bedrock::AgentAlias)</text>
</g>
<!-- AgentAlias&#45;&gt;Agent -->
<g id="edge7" class="edge">
<title>AgentAlias&#45;&gt;Agent</title>
<path fill="none" stroke="black" d="M457.35,-323.7C457.35,-315.93 457.35,-307.57 457.35,-299.43"/>
<polygon fill="black" stroke="black" points="460.85,-299.66 457.35,-289.66 453.85,-299.66 460.85,-299.66"/>
</g>
<!-- SenderIdentity -->
<g id="node12" class="node">
<title>SenderIdentity</title>
<path fill="#e6e6e6" stroke="black" stroke-width="2" d="M1314.81,-396C1314.81,-396 1157.88,-396 1157.88,-396 1151.88,-396 1145.88,-390 1145.88,-384 1145.88,-384 1145.88,-336 1145.88,-336 1145.88,-330 1151.88,-324 1157.88,-324 1157.88,-324 1314.81,-324 1314.81,-324 1320.81,-324 1326.81,-330 1326.81,-336 1326.81,-336 1326.81,-384 1326.81,-384 1326.81,-390 1320.81,-396 1314.81,-396"/>
<text text-anchor="middle" x="1236.35" y="-364.2" font-family="Arial" font-size="14.00">SenderIdentity</text>
<text text-anchor="middle" x="1236.35" y="-347.4" font-family="Arial" font-size="14.00">(AWS::SES::EmailIdentity)</text>
</g>
<!-- NotifyAdminFn -->
<g id="node13" class="node">
<title>NotifyAdminFn</title>
<path fill="#b7e0ff" stroke="black" stroke-width="2" d="M1540.88,-288C1540.88,-288 1387.82,-288 1387.82,-288 1381.82,-288 1375.82,-282 1375.82,-276 1375.82,-276 1375.82,-228 1375.82,-228 1375.82,-222 1381.82,-216 1387.82,-216 1387.82,-216 1540.88,-216 1540.88,-216 1546.88,-216 1552.88,-222 1552.88,-228 1552.88,-228 1552.88,-276 1552.88,-276 1552.88,-282 1546.88,-288 1540.88,-288"/>
<text text-anchor="middle" x="1464.35" y="-256.2" font-family="Arial" font-size="14.00">NotifyAdminFn</text>
<text text-anchor="middle" x="1464.35" y="-239.4" font-family="Arial" font-size="14.00">(AWS::Lambda::Function)</text>
</g>
<!-- notify&#45;admin -->
<g id="node14" class="node">
<title>notify&#45;admin</title>
<path fill="#e6e6e6" stroke="black" stroke-width="2" d="M1571.62,-396C1571.62,-396 1357.08,-396 1357.08,-396 1351.08,-396 1345.08,-390 1345.08,-384 1345.08,-384 1345.08,-336 1345.08,-336 1345.08,-330 1351.08,-324 1357.08,-324 1357.08,-324 1571.62,-324 1571.62,-324 1577.62,-324 1583.62,-330 1583.62,-336 1583.62,-336 1583.62,-384 1583.62,-384 1583.62,-390 1577.62,-396 1571.62,-396"/>
<text text-anchor="middle" x="1464.35" y="-364.2" font-family="Arial" font-size="14.00">notify&#45;admin</text>
<text text-anchor="middle" x="1464.35" y="-347.4" font-family="Arial" font-size="14.00">(AWS::Bedrock::AgentActionGroup)</text>
</g>
<!-- notify&#45;admin&#45;&gt;NotifyAdminFn -->
<g id="edge8" class="edge">
<title>notify&#45;admin&#45;&gt;NotifyAdminFn</title>
<path fill="none" stroke="black" d="M1464.35,-323.7C1464.35,-315.93 1464.35,-307.57 1464.35,-299.43"/>
<polygon fill="black" stroke="black" points="1467.85,-299.66 1464.35,-289.66 1460.85,-299.66 1467.85,-299.66"/>
</g>
</g>
</svg>
